# xmcd
#
# Track frame offsets: 
#        150
#        27144
#        50625
#        78852
#        101454
#        127647
#        152872
#        175757
#        196365
#        217872
#
# Disc length: 3363 seconds
#
# Revision: 0
# Processed by: cddbd v1.5.2PL0 Copyright (c) Steve Scherf et al.
# Submitted via: ExactAudioCopy v1.0b3
#
DISCID=720d210a
DTITLE=Various Artist - Mua Bui 6
DYEAR=1900
DGENRE=
TTITLE0=Dinh Van - Co le
TTITLE1=Thanh Loc, Hong Van - Say
TTITLE2=Lam Truong - Tinh ban
TTITLE3=Mai Tuan, Yen Khoa - Tinh bot nuoc
TTITLE4=Che Thanh - Tinh lang tu
TTITLE5=Tai Linh, Dinh Van - Doi ta
TTITLE6=Tai Linh - Ly chim xanh
TTITLE7=Kim Tu Long - Em truoc anh sau
TTITLE8=Tai Linh, Dinh Van - Co Tham ve que huong
TTITLE9=Ngoc Hai, Thach Thao - LK Vi trong nghich canh, Tien biet, Lam
TTITLE9=dau xu la
EXTD=
EXTT0=
EXTT1=
EXTT2=
EXTT3=
EXTT4=
EXTT5=
EXTT6=
EXTT7=
EXTT8=
EXTT9=
PLAYORDER=
